<svg width="24" height="16" viewBox="0 0 24 16" fill="none" xmlns="http://www.w3.org/2000/svg">
<path d="M24 15C24 15.5523 23.5523 16 23 16H1C0.447716 16 0 15.5523 0 15V14.3333C0 13.781 0.447715 13.3333 1 13.3333H23C23.5523 13.3333 24 13.781 24 14.3333V15ZM24 8.33333C24 8.88562 23.5523 9.33333 23 9.33333H1C0.447716 9.33333 0 8.88562 0 8.33333V7.66667C0 7.11438 0.447715 6.66667 1 6.66667H23C23.5523 6.66667 24 7.11438 24 7.66667V8.33333ZM24 1.66667C24 2.21895 23.5523 2.66667 23 2.66667H1C0.447716 2.66667 0 2.21895 0 1.66667V1C0 0.447716 0.447715 0 1 0H23C23.5523 0 24 0.447715 24 1V1.66667Z" fill="#0D0D0D"/>
</svg>
