<svg width="21" height="20" viewBox="0 0 21 20" fill="none" xmlns="http://www.w3.org/2000/svg">
<path d="M7.72471 9.75133C8.37302 11.0767 9.44739 12.1462 10.7758 12.7885C10.8729 12.8346 10.9804 12.8545 11.0877 12.8464C11.1949 12.8383 11.2982 12.8024 11.3874 12.7422L13.3433 11.438C13.4298 11.3803 13.5293 11.3451 13.6328 11.3356C13.7364 11.3261 13.8407 11.3426 13.9362 11.3835L17.5954 12.9517C17.7197 13.0045 17.8234 13.0963 17.8911 13.2132C17.9587 13.3301 17.9865 13.4658 17.9702 13.5999C17.8546 14.5049 17.413 15.3367 16.7282 15.9396C16.0434 16.5425 15.1624 16.8751 14.25 16.8751C11.4321 16.8751 8.72956 15.7557 6.73699 13.7631C4.74442 11.7706 3.625 9.06806 3.625 6.25014C3.62505 5.33777 3.95765 4.45671 4.56053 3.77192C5.16341 3.08712 5.99523 2.64556 6.90023 2.5299C7.03431 2.51368 7.17002 2.54146 7.28693 2.60908C7.40384 2.67669 7.49561 2.78046 7.54841 2.90476L9.11798 6.5671C9.15858 6.66183 9.17512 6.76513 9.16614 6.8678C9.15715 6.97047 9.12291 7.06932 9.06647 7.15556L7.76676 9.14147C7.7076 9.23081 7.67263 9.33396 7.66526 9.44085C7.65789 9.54775 7.67837 9.65472 7.72471 9.75133V9.75133Z" stroke="#0D0D0D" stroke-width="1.5" stroke-linecap="round" stroke-linejoin="round"/>
</svg>
